<svg viewBox="0 0 500 500" xmlns="http://www.w3.org/2000/svg">
  <path style="fill: rgb(51, 51, 51); white-space: pre;"/>
  <g transform="matrix(12.0663, 0, 0, 11.12694, 117.040092, 107.020134)" style="">
    <path d="M 26.567 15.55 C 27.116 14.983 27.095 14.087 26.517 13.546 C 25.938 13.006 25.024 13.028 24.473 13.596 L 13.001 25.411 L 13.001 -2.438 C 13.001 -3.221 12.354 -3.856 11.556 -3.856 C 10.758 -3.856 10.111 -3.221 10.111 -2.438 L 10.111 25.411 L -1.362 13.596 C -1.914 13.028 -2.828 13.006 -3.405 13.546 C -3.983 14.087 -4.007 14.983 -3.455 15.55 L 10.161 29.573 C 10.47 29.892 10.866 30.081 11.279 30.14 C 11.367 30.157 11.462 30.167 11.556 30.167 C 11.651 30.167 11.744 30.157 11.836 30.14 C 12.246 30.081 12.64 29.892 12.951 29.573 L 26.567 15.55 Z" style="fill: rgb(25, 25, 25);" transform="matrix(-0.819151, 0.573578, -0.573578, -0.819151, 28.566757, 17.303906)"/>
  </g>
</svg>

